<?xml version="1.0" encoding="UTF-8" standalone="no"?>
<!-- Created with Inkscape (http://www.inkscape.org/) -->

<svg
   xmlns:dc="http://purl.org/dc/elements/1.1/"
   xmlns:cc="http://creativecommons.org/ns#"
   xmlns:rdf="http://www.w3.org/1999/02/22-rdf-syntax-ns#"
   xmlns:svg="http://www.w3.org/2000/svg"
   xmlns="http://www.w3.org/2000/svg"
   version="1.1"
   width="607.83698"
   height="289.51208"
   id="svg2"
   xml:space="preserve">
   <defs
     id="defs6"><clipPath
       id="clipPath134-4"><path
         d="m 408.695,158.832 -163.106,0 0,-77.4 163.106,0 0,77.4 z"
         id="path136-0" /></clipPath><clipPath
       id="clipPath50-9"><path
         d="m 408.695,158.832 -163.106,0 0,-77.4 163.106,0 0,77.4 z"
         id="path52-4" /></clipPath></defs><g
     transform="matrix(1.25,0,0,-1.25,-85.005364,569.5419)"
     id="g10"><g
       transform="matrix(2.9717239,0,0,2.9717239,-661.01841,-17.169573)"
       id="g46"><g
         clip-path="url(#clipPath50-9)"
         id="g48"><g
           transform="translate(340.37199,148.16299)"
           id="g54"><path
             d="m 0,0 c 0.059,-0.395 0.019,-0.823 -0.271,-1.16 -0.301,-0.359 -8.211,-9.135 -8.211,-9.135 -2.229,-2.575 -2.701,-0.677 -3.659,1.403 -0.992,2.147 -1.451,3.317 -2.289,5.13 -0.894,1.943 -1.395,2.851 -3.452,0.602 -2.438,-2.674 -7.799,-8.741 -8.214,-9.048 -0.393,-0.291 -0.924,-0.107 -1.173,0.226 -2.414,3.228 -3.646,5.133 -4.292,9.361 -0.046,0.303 -0.159,0.727 0.324,1.33 6.828,8.105 15.289,11.369 25.804,11.952 0.518,0.058 0.883,-0.235 1.168,-0.5 C -2.544,8.556 -0.609,3.883 0,0"
             id="path56"
             style="fill:#fddd04;fill-opacity:1;fill-rule:nonzero;stroke:none" /></g></g></g><path
       d="m 271.83546,370.50667 c -0.11887,1.60473 -0.31798,2.10695 0.79642,3.4472 0.89152,1.07576 24.46323,27.10509 24.46323,27.10509 6.62992,7.64328 8.01771,2.00295 10.85274,-4.17824 2.94795,-6.38921 4.309,-9.86315 6.7785,-15.25386 2.65375,-5.78 4.1515,-8.48724 10.25245,-1.80384 7.26289,7.93154 22.65048,24.89711 23.74704,25.95504 1.53935,1.50369 3.55121,1.26001 4.19608,0.20505 6.59425,-10.69821 8.60611,-15.55995 12.70709,-27.84208 0.30311,-0.85883 0.46953,-2.1545 -0.97473,-3.94051 -20.31767,-24.06205 -45.47332,-33.71718 -76.72397,-35.39917 -1.54826,-0.16642 -2.62403,0.7043 -3.46503,1.49477 -5.10839,4.77259 -11.75019,18.56436 -12.62982,30.21055"
       id="path60"
       style="fill:#107eca;fill-opacity:1;fill-rule:nonzero;stroke:none" /><g
       transform="matrix(2.9717239,0,0,2.9717239,109.80518,293.74404)"
       id="g62"><path
         d="m 0,0 c -0.113,2.144 -0.251,4.746 -0.251,6.64 l -0.045,0 C -0.844,4.86 -1.46,2.92 -2.235,0.798 l -2.715,-7.461 -1.506,0 -2.51,7.324 c -0.73,2.19 -1.324,4.152 -1.758,5.979 l -0.045,0 c -0.045,-1.917 -0.16,-4.472 -0.297,-6.8 l -0.41,-6.593 -1.894,0 1.072,15.377 2.533,0 2.624,-7.437 c 0.638,-1.894 1.14,-3.583 1.551,-5.18 l 0.046,0 c 0.412,1.551 0.958,3.24 1.643,5.18 l 2.739,7.437 2.532,0 0.959,-15.377 -1.964,0 L 0,0"
         id="path64"
         style="fill:#231f20;fill-opacity:1;fill-rule:nonzero;stroke:none" /></g><g
       transform="matrix(2.9717239,0,0,2.9717239,127.49883,273.67602)"
       id="g66"><path
         d="M 2.008,0 0,0 l 0,11.042 2.008,0 L 2.008,0 z M 0,0 z m 0.958,13.073 c -0.753,0 -1.254,0.593 -1.254,1.301 0,0.707 0.524,1.277 1.3,1.277 0.776,0 1.278,-0.57 1.278,-1.277 0,-0.708 -0.502,-1.301 -1.3,-1.301 l -0.024,0"
         id="path68"
         style="fill:#231f20;fill-opacity:1;fill-rule:nonzero;stroke:none" /></g><g
       transform="matrix(2.9717239,0,0,2.9717239,151.56682,314.35595)"
       id="g70"><path
         d="m 0,0 0,-2.647 2.875,0 0,-1.529 -2.875,0 0,-5.954 c 0,-1.369 0.389,-2.144 1.506,-2.144 0.548,0 0.867,0.045 1.164,0.135 l 0.091,-1.528 c -0.388,-0.136 -1.004,-0.274 -1.779,-0.274 -0.936,0 -1.689,0.32 -2.167,0.844 -0.549,0.616 -0.777,1.598 -0.777,2.899 l 0,6.022 -1.711,0 0,1.529 1.711,0 0,2.031 L 0,0"
         id="path72"
         style="fill:#231f20;fill-opacity:1;fill-rule:nonzero;stroke:none" /></g><g
       transform="matrix(2.9717239,0,0,2.9717239,175.02858,314.35595)"
       id="g74"><path
         d="m 0,0 0,-2.647 2.875,0 0,-1.529 -2.875,0 0,-5.954 c 0,-1.369 0.388,-2.144 1.506,-2.144 0.548,0 0.867,0.045 1.164,0.135 l 0.091,-1.528 c -0.388,-0.136 -1.004,-0.274 -1.779,-0.274 -0.936,0 -1.689,0.32 -2.168,0.844 -0.548,0.616 -0.776,1.598 -0.776,2.899 l 0,6.022 -1.712,0 0,1.529 1.712,0 0,2.031 L 0,0"
         id="path76"
         style="fill:#231f20;fill-opacity:1;fill-rule:nonzero;stroke:none" /></g><g
       transform="matrix(2.9717239,0,0,2.9717239,218.76341,282.62685)"
       id="g78"><path
         d="m 0,0 c 0,-1.142 0.023,-2.145 0.091,-3.012 l -1.779,0 -0.114,1.802 -0.047,0 c -0.502,-0.89 -1.688,-2.054 -3.65,-2.054 -1.733,0 -3.81,0.982 -3.81,4.837 l 0,6.458 2.007,0 0,-6.092 c 0,-2.1 0.663,-3.536 2.465,-3.536 1.346,0 2.281,0.935 2.646,1.847 0.115,0.274 0.183,0.639 0.183,1.027 l 0,6.754 L 0,8.031 0,0"
         id="path80"
         style="fill:#231f20;fill-opacity:1;fill-rule:nonzero;stroke:none" /></g><g
       transform="matrix(2.9717239,0,0,2.9717239,229.67858,297.60434)"
       id="g82"><path
         d="m 0,0 c 0,1.164 -0.023,2.078 -0.092,2.99 l 1.78,0 0.115,-1.803 0.045,0 C 2.396,2.213 3.674,3.24 5.499,3.24 7.027,3.24 9.4,2.329 9.4,-1.46 l 0,-6.593 -2.007,0 0,6.365 c 0,1.78 -0.662,3.285 -2.556,3.285 C 3.536,1.597 2.51,0.662 2.145,-0.455 2.054,-0.707 2.008,-1.072 2.008,-1.391 l 0,-6.662 L 0,-8.053 0,0"
         id="path84"
         style="fill:#231f20;fill-opacity:1;fill-rule:nonzero;stroke:none" /></g><g
       transform="matrix(2.9717239,0,0,2.9717239,268.32288,273.67602)"
       id="g86"><path
         d="M 2.008,0 0,0 l 0,11.042 2.008,0 L 2.008,0 z M 0,0 z m 0.959,13.073 c -0.753,0 -1.255,0.593 -1.255,1.301 0,0.707 0.524,1.277 1.301,1.277 0.774,0 1.278,-0.57 1.278,-1.277 0,-0.708 -0.504,-1.301 -1.301,-1.301 l -0.023,0"
         id="path88"
         style="fill:#231f20;fill-opacity:1;fill-rule:nonzero;stroke:none" /></g><g
       transform="matrix(2.9717239,0,0,2.9717239,287.5113,306.48976)"
       id="g90"><path
         d="m 0,0 2.168,-6.183 c 0.365,-1.028 0.661,-1.939 0.89,-2.853 l 0.068,0 c 0.251,0.914 0.571,1.825 0.935,2.853 L 6.206,0 8.305,0 3.97,-11.042 l -1.916,0 L -2.144,0 0,0"
         id="path92"
         style="fill:#231f20;fill-opacity:1;fill-rule:nonzero;stroke:none" /></g><g
       transform="matrix(2.9717239,0,0,2.9717239,338.91024,293.33394)"
       id="g94"><path
         d="M 0,0 C 0.023,1.256 -0.525,3.263 -2.761,3.263 -4.814,3.263 -5.682,1.392 -5.841,0 L 0,0 z m -5.863,-1.436 c 0.044,-2.716 1.756,-3.834 3.764,-3.834 1.437,0 2.327,0.251 3.057,0.547 l 0.365,-1.413 c -0.707,-0.32 -1.939,-0.708 -3.695,-0.708 -3.378,0 -5.431,2.26 -5.431,5.567 0,3.355 1.984,5.978 5.202,5.978 3.605,0 4.541,-3.172 4.541,-5.203 0,-0.41 -0.023,-0.73 -0.069,-0.958 l -7.734,0.024"
         id="path96"
         style="fill:#231f20;fill-opacity:1;fill-rule:nonzero;stroke:none" /></g><g
       transform="matrix(2.9717239,0,0,2.9717239,353.1448,296.2522)"
       id="g98"><path
         d="m 0,0 c 0,1.3 -0.023,2.418 -0.092,3.445 l 1.757,0 0.092,-2.168 0.068,0 c 0.502,1.483 1.735,2.418 3.08,2.418 0.207,0 0.366,-0.022 0.549,-0.067 l 0,-1.872 C 5.225,1.779 5.02,1.803 4.745,1.803 3.332,1.803 2.327,0.73 2.053,-0.754 2.008,-1.05 1.985,-1.37 1.985,-1.712 l 0,-5.886 -2.008,0 L 0,0"
         id="path100"
         style="fill:#231f20;fill-opacity:1;fill-rule:nonzero;stroke:none" /></g><g
       transform="matrix(2.9717239,0,0,2.9717239,375.45353,279.71156)"
       id="g102"><path
         d="m 0,0 c 0.616,-0.367 1.666,-0.777 2.671,-0.777 1.436,0 2.121,0.707 2.121,1.642 0,0.96 -0.571,1.484 -2.031,2.031 -2.007,0.73 -2.943,1.803 -2.943,3.126 0,1.78 1.46,3.24 3.811,3.24 1.118,0 2.099,-0.296 2.691,-0.683 L 5.841,7.141 C 5.408,7.39 4.608,7.78 3.583,7.78 2.396,7.78 1.758,7.094 1.758,6.273 1.758,5.339 2.396,4.927 3.834,4.38 5.728,3.672 6.731,2.714 6.731,1.049 c 0,-1.962 -1.528,-3.332 -4.107,-3.332 -1.209,0 -2.326,0.32 -3.102,0.776 L 0,0"
         id="path104"
         style="fill:#231f20;fill-opacity:1;fill-rule:nonzero;stroke:none" /></g><g
       transform="matrix(2.9717239,0,0,2.9717239,404.13363,273.67602)"
       id="g106"><path
         d="M 2.008,0 0,0 l 0,11.042 2.008,0 L 2.008,0 z M 0,0 z m 0.958,13.073 c -0.752,0 -1.254,0.593 -1.254,1.301 0,0.707 0.524,1.277 1.301,1.277 0.775,0 1.277,-0.57 1.277,-1.277 0,-0.708 -0.502,-1.301 -1.301,-1.301 l -0.023,0"
         id="path108"
         style="fill:#231f20;fill-opacity:1;fill-rule:nonzero;stroke:none" /></g><g
       transform="matrix(2.9717239,0,0,2.9717239,428.20163,314.35595)"
       id="g110"><path
         d="m 0,0 0,-2.647 2.875,0 0,-1.529 -2.875,0 0,-5.954 c 0,-1.369 0.389,-2.144 1.507,-2.144 0.546,0 0.866,0.045 1.163,0.135 l 0.09,-1.528 c -0.387,-0.136 -1.003,-0.274 -1.779,-0.274 -0.934,0 -1.688,0.32 -2.166,0.844 -0.548,0.616 -0.777,1.598 -0.777,2.899 l 0,6.022 -1.711,0 0,1.529 1.711,0 0,2.031 L 0,0"
         id="path112"
         style="fill:#231f20;fill-opacity:1;fill-rule:nonzero;stroke:none" /></g><g
       transform="matrix(2.9717239,0,0,2.9717239,464.8965,293.33394)"
       id="g114"><path
         d="M 0,0 C 0.022,1.256 -0.525,3.263 -2.761,3.263 -4.815,3.263 -5.682,1.392 -5.842,0 L 0,0 z m -5.863,-1.436 c 0.044,-2.716 1.756,-3.834 3.765,-3.834 1.435,0 2.326,0.251 3.056,0.547 l 0.365,-1.413 c -0.707,-0.32 -1.939,-0.708 -3.696,-0.708 -3.378,0 -5.431,2.26 -5.431,5.567 0,3.355 1.985,5.978 5.203,5.978 3.604,0 4.54,-3.172 4.54,-5.203 0,-0.41 -0.022,-0.73 -0.069,-0.958 l -7.733,0.024"
         id="path116"
         style="fill:#231f20;fill-opacity:1;fill-rule:nonzero;stroke:none" /></g><g
       transform="matrix(2.9717239,0,0,2.9717239,486.25425,314.35595)"
       id="g118"><path
         d="m 0,0 0,-2.647 2.874,0 0,-1.529 -2.874,0 0,-5.954 c 0,-1.369 0.388,-2.144 1.505,-2.144 0.547,0 0.867,0.045 1.163,0.135 l 0.092,-1.528 c -0.388,-0.136 -1.004,-0.274 -1.78,-0.274 -0.934,0 -1.687,0.32 -2.166,0.844 -0.549,0.616 -0.777,1.598 -0.777,2.899 l 0,6.022 -1.711,0 0,1.529 1.711,0 0,2.031 L 0,0"
         id="path120"
         style="fill:#231f20;fill-opacity:1;fill-rule:nonzero;stroke:none" /></g><g
       transform="matrix(2.9717239,0,0,2.9717239,522.94316,293.33394)"
       id="g122"><path
         d="M 0,0 C 0.023,1.256 -0.524,3.263 -2.761,3.263 -4.814,3.263 -5.681,1.392 -5.84,0 L 0,0 z m -5.862,-1.436 c 0.045,-2.716 1.756,-3.834 3.764,-3.834 1.437,0 2.326,0.251 3.057,0.547 l 0.365,-1.413 c -0.707,-0.32 -1.94,-0.708 -3.696,-0.708 -3.376,0 -5.431,2.26 -5.431,5.567 0,3.355 1.986,5.978 5.203,5.978 3.604,0 4.54,-3.172 4.54,-5.203 0,-0.41 -0.023,-0.73 -0.069,-0.958 l -7.733,0.024"
         id="path124"
         style="fill:#231f20;fill-opacity:1;fill-rule:nonzero;stroke:none" /></g><g
       transform="matrix(2.9717239,0,0,2.9717239,544.30391,314.35595)"
       id="g126"><path
         d="m 0,0 0,-2.647 2.873,0 0,-1.529 -2.873,0 0,-5.954 c 0,-1.369 0.388,-2.144 1.505,-2.144 0.547,0 0.867,0.045 1.164,0.135 l 0.092,-1.528 c -0.389,-0.136 -1.005,-0.274 -1.78,-0.274 -0.936,0 -1.689,0.32 -2.168,0.844 -0.548,0.616 -0.776,1.598 -0.776,2.899 l 0,6.022 -1.711,0 0,1.529 1.711,0 0,2.031 L 0,0"
         id="path128"
         style="fill:#231f20;fill-opacity:1;fill-rule:nonzero;stroke:none" /></g><g
       transform="matrix(2.9717239,0,0,2.9717239,-661.01841,-17.169573)"
       id="g130"><g
         clip-path="url(#clipPath134-4)"
         id="g132"><g
           transform="translate(245.589,92.735001)"
           id="g138"><path
             d="M 0,0 163.106,0"
             id="path140"
             style="fill:none;stroke:#231f20;stroke-width:0.27200001;stroke-linecap:butt;stroke-linejoin:miter;stroke-miterlimit:4;stroke-opacity:1;stroke-dasharray:none" /></g></g></g><g
       transform="matrix(2.9717239,0,0,2.9717239,114.08447,233.50425)"
       id="g142"><path
         d="m 0,0 c -0.048,0.895 -0.105,1.979 -0.105,2.769 l -0.019,0 C -0.352,2.027 -0.609,1.218 -0.932,0.333 l -1.133,-3.112 -0.628,0 -1.046,3.055 c -0.305,0.913 -0.552,1.732 -0.733,2.493 l -0.019,0 C -4.51,1.97 -4.558,0.904 -4.615,-0.067 l -0.171,-2.749 -0.79,0 0.447,6.412 1.057,0 1.094,-3.101 c 0.266,-0.79 0.476,-1.494 0.647,-2.16 l 0.019,0 c 0.171,0.647 0.399,1.351 0.685,2.16 l 1.142,3.101 1.056,0 0.399,-6.412 -0.818,0 L 0,0"
         id="path144"
         style="fill:#231f20;fill-opacity:1;fill-rule:nonzero;stroke:none" /></g><path
       d="m 126.94906,225.13588 2.48733,0 0,19.05469 -2.48733,0 0,-19.05469 z"
       id="path146"
       style="fill:#231f20;fill-opacity:1;fill-rule:nonzero;stroke:none" /><g
       transform="matrix(2.9717239,0,0,2.9717239,142.41388,227.05561)"
       id="g148"><path
         d="M 0,0 C 0.21,-0.038 0.514,-0.038 0.838,-0.038 2.607,-0.047 3.568,0.951 3.568,2.683 3.578,4.215 2.721,5.157 0.971,5.157 0.542,5.157 0.219,5.119 0,5.071 L 0,0 z m -0.837,5.68 c 0.514,0.077 1.113,0.134 1.77,0.134 1.189,0 2.036,-0.267 2.597,-0.79 C 4.11,4.5 4.443,3.749 4.443,2.712 4.443,1.665 4.11,0.809 3.521,0.219 2.912,-0.381 1.922,-0.704 0.676,-0.704 c -0.599,0 -1.085,0.019 -1.513,0.076 l 0,6.308"
         id="path150"
         style="fill:#231f20;fill-opacity:1;fill-rule:nonzero;stroke:none" /></g><g
       transform="matrix(2.9717239,0,0,2.9717239,175.21283,228.13138)"
       id="g152"><path
         d="m 0,0 c 0.371,-0.238 0.904,-0.419 1.475,-0.419 0.847,0 1.342,0.438 1.342,1.095 0,0.589 -0.343,0.941 -1.209,1.265 -1.047,0.381 -1.693,0.932 -1.693,1.827 0,0.998 0.827,1.741 2.073,1.741 0.648,0 1.133,-0.152 1.409,-0.314 L 3.169,4.519 C 2.969,4.643 2.54,4.824 1.96,4.824 1.085,4.824 0.752,4.3 0.752,3.863 c 0,-0.6 0.39,-0.895 1.275,-1.237 1.085,-0.428 1.627,-0.942 1.627,-1.884 0,-0.99 -0.723,-1.855 -2.236,-1.855 -0.618,0 -1.294,0.19 -1.637,0.418 L 0,0"
         id="path154"
         style="fill:#231f20;fill-opacity:1;fill-rule:nonzero;stroke:none" /></g><g
       transform="matrix(2.9717239,0,0,2.9717239,198.79343,225.13588)"
       id="g156"><path
         d="m 0,0 -1.627,6.412 0.875,0 L 0.01,3.168 C 0.2,2.359 0.371,1.57 0.485,0.951 l 0.019,0 C 0.609,1.589 0.809,2.35 1.028,3.177 l 0.856,3.235 0.866,0 0.78,-3.253 C 3.711,2.388 3.882,1.636 3.977,0.961 l 0.019,0 C 4.129,1.665 4.31,2.378 4.51,3.177 l 0.847,3.235 0.847,0 L 4.387,0 3.521,0 2.712,3.33 C 2.512,4.157 2.379,4.786 2.293,5.432 l -0.019,0 C 2.169,4.786 2.017,4.167 1.779,3.339 L 0.866,0 0,0"
         id="path158"
         style="fill:#231f20;fill-opacity:1;fill-rule:nonzero;stroke:none" /></g><g
       transform="matrix(2.9717239,0,0,2.9717239,235.66363,234.06888)"
       id="g160"><path
         d="m 0,0 -2.483,0 0,-2.312 2.778,0 0,-0.695 -3.615,0 0,6.413 3.472,0 0,-0.695 -2.635,0 0,-2.026 L 0,0.685 0,0"
         id="path162"
         style="fill:#231f20;fill-opacity:1;fill-rule:nonzero;stroke:none" /></g><g
       transform="matrix(2.9717239,0,0,2.9717239,248.4153,227.05561)"
       id="g164"><path
         d="m 0,0 c 0.209,-0.038 0.514,-0.038 0.837,-0.038 1.77,-0.009 2.73,0.989 2.73,2.721 C 3.577,4.215 2.721,5.157 0.97,5.157 0.542,5.157 0.219,5.119 0,5.071 L 0,0 z m -0.838,5.68 c 0.514,0.077 1.114,0.134 1.77,0.134 1.189,0 2.036,-0.267 2.598,-0.79 C 4.11,4.5 4.443,3.749 4.443,2.712 4.443,1.665 4.11,0.809 3.52,0.219 2.911,-0.381 1.921,-0.704 0.675,-0.704 c -0.599,0 -1.085,0.019 -1.513,0.076 l 0,6.308"
         id="path166"
         style="fill:#231f20;fill-opacity:1;fill-rule:nonzero;stroke:none" /></g><g
       transform="matrix(2.9717239,0,0,2.9717239,280.84572,234.06888)"
       id="g168"><path
         d="m 0,0 -2.483,0 0,-2.312 2.778,0 0,-0.695 -3.615,0 0,6.413 3.473,0 0,-0.695 -2.636,0 0,-2.026 L 0,0.685 0,0"
         id="path170"
         style="fill:#231f20;fill-opacity:1;fill-rule:nonzero;stroke:none" /></g><g
       transform="matrix(2.9717239,0,0,2.9717239,291.1368,225.13588)"
       id="g172"><path
         d="m 0,0 0,6.412 0.913,0 2.046,-3.244 C 3.425,2.416 3.806,1.75 4.101,1.084 l 0.028,0.01 C 4.053,1.95 4.034,2.73 4.034,3.72 l 0,2.692 0.78,0 L 4.814,0 3.977,0 1.941,3.254 C 1.493,3.967 1.065,4.7 0.751,5.395 L 0.723,5.385 C 0.77,4.576 0.78,3.805 0.78,2.74 L 0.78,0 0,0"
         id="path174"
         style="fill:#231f20;fill-opacity:1;fill-rule:nonzero;stroke:none" /></g><g
       transform="matrix(2.9717239,0,0,2.9717239,328.94013,244.1906)"
       id="g176"><path
         d="m 0,0 0,-3.806 c 0,-1.427 0.638,-2.036 1.495,-2.036 0.941,0 1.559,0.628 1.559,2.036 l 0,3.806 0.838,0 0,-3.748 c 0,-1.97 -1.038,-2.769 -2.427,-2.769 -1.313,0 -2.302,0.742 -2.302,2.74 L -0.837,0 0,0"
         id="path178"
         style="fill:#231f20;fill-opacity:1;fill-rule:nonzero;stroke:none" /></g><g
       transform="matrix(2.9717239,0,0,2.9717239,350.99624,225.13588)"
       id="g180"><path
         d="m 0,0 0,6.412 0.913,0 2.046,-3.244 C 3.425,2.416 3.806,1.75 4.1,1.084 l 0.029,0.01 C 4.053,1.95 4.034,2.73 4.034,3.72 l 0,2.692 0.78,0 L 4.814,0 3.977,0 1.94,3.254 C 1.494,3.967 1.065,4.7 0.751,5.395 L 0.723,5.385 C 0.77,4.576 0.78,3.805 0.78,2.74 L 0.78,0 0,0"
         id="path182"
         style="fill:#231f20;fill-opacity:1;fill-rule:nonzero;stroke:none" /></g><path
       d="m 375.7923,225.13588 2.48436,0 0,19.05469 -2.48436,0 0,-19.05469 z"
       id="path184"
       style="fill:#231f20;fill-opacity:1;fill-rule:nonzero;stroke:none" /><g
       transform="matrix(2.9717239,0,0,2.9717239,392.98373,225.13588)"
       id="g186"><path
         d="m 0,0 -2.103,6.412 0.904,0 L -0.2,3.254 C 0.067,2.388 0.304,1.598 0.485,0.856 l 0.019,0 c 0.181,0.742 0.438,1.551 0.733,2.388 l 1.085,3.168 0.884,0 L 0.913,0 0,0"
         id="path188"
         style="fill:#231f20;fill-opacity:1;fill-rule:nonzero;stroke:none" /></g><g
       transform="matrix(2.9717239,0,0,2.9717239,420.63559,234.06888)"
       id="g190"><path
         d="m 0,0 -2.483,0 0,-2.312 2.778,0 0,-0.695 -3.615,0 0,6.413 3.472,0 0,-0.695 -2.635,0 0,-2.026 L 0,0.685 0,0"
         id="path192"
         style="fill:#231f20;fill-opacity:1;fill-rule:nonzero;stroke:none" /></g><g
       transform="matrix(2.9717239,0,0,2.9717239,433.38725,235.25754)"
       id="g194"><path
         d="m 0,0 0.847,0 c 0.885,0 1.446,0.485 1.446,1.218 0,0.827 -0.6,1.189 -1.474,1.189 C 0.418,2.407 0.143,2.369 0,2.331 L 0,0 z m -0.828,2.911 c 0.419,0.086 1.027,0.143 1.589,0.143 0.885,0 1.465,-0.171 1.865,-0.532 C 2.94,2.246 3.13,1.808 3.13,1.304 3.13,0.467 2.588,-0.095 1.922,-0.324 l 0,-0.028 C 2.407,-0.523 2.702,-0.98 2.864,-1.646 3.073,-2.54 3.225,-3.159 3.35,-3.406 l -0.857,0 C 2.388,-3.225 2.245,-2.674 2.074,-1.874 1.883,-0.99 1.532,-0.656 0.78,-0.628 l -0.78,0 0,-2.778 -0.828,0 0,6.317"
         id="path196"
         style="fill:#231f20;fill-opacity:1;fill-rule:nonzero;stroke:none" /></g><g
       transform="matrix(2.9717239,0,0,2.9717239,452.04674,228.13138)"
       id="g198"><path
         d="m 0,0 c 0.371,-0.238 0.904,-0.419 1.474,-0.419 0.848,0 1.342,0.438 1.342,1.095 0,0.589 -0.342,0.941 -1.208,1.265 -1.047,0.381 -1.694,0.932 -1.694,1.827 0,0.998 0.828,1.741 2.074,1.741 0.647,0 1.132,-0.152 1.409,-0.314 L 3.168,4.519 C 2.968,4.643 2.54,4.824 1.96,4.824 1.085,4.824 0.751,4.3 0.751,3.863 c 0,-0.6 0.391,-0.895 1.276,-1.237 1.084,-0.428 1.627,-0.942 1.627,-1.884 0,-0.99 -0.724,-1.855 -2.237,-1.855 -0.618,0 -1.294,0.19 -1.636,0.418 L 0,0"
         id="path200"
         style="fill:#231f20;fill-opacity:1;fill-rule:nonzero;stroke:none" /></g><path
       d="m 472.48923,225.13588 2.4903,0 0,19.05469 -2.4903,0 0,-19.05469 z"
       id="path202"
       style="fill:#231f20;fill-opacity:1;fill-rule:nonzero;stroke:none" /><g
       transform="matrix(2.9717239,0,0,2.9717239,489.11602,242.09845)"
       id="g204"><path
         d="m 0,0 -1.951,0 0,0.704 4.748,0 0,-0.704 -1.96,0 0,-5.708 L 0,-5.708 0,0"
         id="path206"
         style="fill:#231f20;fill-opacity:1;fill-rule:nonzero;stroke:none" /></g><g
       transform="matrix(2.9717239,0,0,2.9717239,511.05329,225.13588)"
       id="g208"><path
         d="m 0,0 0,2.721 -2.037,3.691 0.952,0 0.904,-1.769 C 0.057,4.157 0.256,3.768 0.456,3.32 l 0.019,0 c 0.172,0.419 0.4,0.837 0.647,1.323 l 0.923,1.769 0.932,0 L 0.837,2.73 0.837,0 0,0"
         id="path210"
         style="fill:#231f20;fill-opacity:1;fill-rule:nonzero;stroke:none" /></g></g></svg>